<?xml version="1.0" encoding="UTF-8" standalone="no" ?>
<!DOCTYPE svg PUBLIC "-//W3C//DTD SVG 1.1//EN" "http://www.w3.org/Graphics/SVG/1.1/DTD/svg11.dtd">
<svg xmlns="http://www.w3.org/2000/svg" xmlns:xlink="http://www.w3.org/1999/xlink" version="1.1" width="1080" height="1080" viewBox="0 0 1080 1080" xml:space="preserve">
<desc>Created with Fabric.js 5.2.4</desc>
<defs>
</defs>
<g transform="matrix(1 0 0 1 540 540)" id="6007c257-90b6-47da-aa07-634aeb1be833"  >
<rect style="stroke: none; stroke-width: 1; stroke-dasharray: none; stroke-linecap: butt; stroke-dashoffset: 0; stroke-linejoin: miter; stroke-miterlimit: 4; fill: rgb(255,255,255); fill-rule: nonzero; opacity: 1; visibility: hidden;" vector-effect="non-scaling-stroke"  x="-540" y="-540" rx="0" ry="0" width="1080" height="1080" />
</g>
<g transform="matrix(1 0 0 1 540 540)" id="12c65855-e5b2-4032-9556-75c6a0bd2f07"  >
</g>
<g transform="matrix(21.6 0 0 21.6 540 540)"  >
<path style="stroke: rgb(89,177,227); stroke-width: 3; stroke-dasharray: none; stroke-linecap: butt; stroke-dashoffset: 0; stroke-linejoin: miter; stroke-miterlimit: 4; fill: none; fill-rule: nonzero; opacity: 1;"  transform=" translate(-25.12, -21.5)" d="M 29.7497 17.6031 L 29.7497 20.1168 L 31.962 18.9232 L 46.9582 10.8324 C 47.4934 10.544 48.1369 10.928 48.1369 11.5371 L 48.1369 38.3929 C 48.1369 40.1111 46.7463 41.5 45.0401 41.5 L 5.20128 41.5 C 3.49508 41.5 2.10449 40.1111 2.10449 38.3929 L 2.10449 3.07143 C 2.10449 2.19779 2.80556 1.5 3.66902 1.5 L 9.79807 1.5 C 10.6615 1.5 11.3626 2.19779 11.3626 3.07143 L 11.3626 17.6031 L 11.3626 20.1168 L 13.5748 18.9232 L 28.571 10.8324 C 28.5712 10.8323 28.5713 10.8322 28.5715 10.8321 C 29.1067 10.5443 29.7497 10.9282 29.7497 11.5371 L 29.7497 17.6031 Z" stroke-linecap="round" />
</g>
</svg>