<?xml version="1.0" encoding="UTF-8" standalone="no" ?>
<!DOCTYPE svg PUBLIC "-//W3C//DTD SVG 1.1//EN" "http://www.w3.org/Graphics/SVG/1.1/DTD/svg11.dtd">
<svg xmlns="http://www.w3.org/2000/svg" xmlns:xlink="http://www.w3.org/1999/xlink" version="1.1" width="720" height="720" viewBox="0 0 720 720" xml:space="preserve">
<desc>Created with Fabric.js 5.2.4</desc>
<defs>
</defs>
<g transform="matrix(1 0 0 1 360 360)" id="dd376ba7-4f45-4614-b150-6ca7f4e83b68"  >
<rect style="stroke: none; stroke-width: 1; stroke-dasharray: none; stroke-linecap: butt; stroke-dashoffset: 0; stroke-linejoin: miter; stroke-miterlimit: 4; fill: rgb(255,255,255); fill-rule: nonzero; opacity: 1; visibility: hidden;" vector-effect="non-scaling-stroke"  x="-360" y="-360" rx="0" ry="0" width="720" height="720" />
</g>
<g transform="matrix(Infinity NaN NaN Infinity 0 0)" id="986beb99-aa23-4227-8a78-96490852dd33"  >
</g>
<g transform="matrix(15.32 0 0 15.32 360 360)"  >
<g style=""   >
		<g transform="matrix(1 0 0 1 -15.77 12.75)"  >
<path style="stroke: rgb(89,177,227); stroke-width: 3; stroke-dasharray: none; stroke-linecap: round; stroke-dashoffset: 0; stroke-linejoin: round; stroke-miterlimit: 4; fill: none; fill-rule: nonzero; opacity: 1;" vector-effect="non-scaling-stroke"  transform=" translate(-7.73, -36.25)" d="M 1.74902 44.6224 L 8.93103 44.6224 C 11.5754 44.6224 13.719 42.4802 13.719 39.8376 L 13.719 32.6603 C 13.719 30.0176 11.5754 27.8755 8.93103 27.8755 L 1.74902 27.8755" stroke-linecap="round" />
</g>
		<g transform="matrix(1 0 0 1 15.36 12.75)"  >
<path style="stroke: rgb(89,177,227); stroke-width: 3; stroke-dasharray: none; stroke-linecap: round; stroke-dashoffset: 0; stroke-linejoin: round; stroke-miterlimit: 4; fill: none; fill-rule: nonzero; opacity: 1;" vector-effect="non-scaling-stroke"  transform=" translate(-38.86, -36.25)" d="M 44.8411 44.6224 L 37.6591 44.6224 C 35.0147 44.6224 32.8711 42.4802 32.8711 39.8376 L 32.8711 32.6603 C 32.8711 30.0176 35.0147 27.8755 37.6591 27.8755 L 44.8411 27.8755" stroke-linecap="round" />
</g>
		<g transform="matrix(1 0 0 1 -0.2 -0.41)"  >
<path style="stroke: rgb(89,177,227); stroke-width: 3; stroke-dasharray: none; stroke-linecap: round; stroke-dashoffset: 0; stroke-linejoin: round; stroke-miterlimit: 4; fill: none; fill-rule: nonzero; opacity: 1;" vector-effect="non-scaling-stroke"  transform=" translate(-23.3, -23.09)" d="M 1.74902 27.8755 L 1.74902 44.6224 L 1.74902 23.0906 C 1.74902 11.199 11.3955 1.55884 23.2951 1.55884 C 35.1947 1.55884 44.8411 11.199 44.8411 23.0906 L 44.8411 44.6224 L 44.8411 27.8755" stroke-linecap="round" />
</g>
</g>
</g>
</svg>