<?xml version="1.0" encoding="UTF-8" standalone="no" ?>
<!DOCTYPE svg PUBLIC "-//W3C//DTD SVG 1.1//EN" "http://www.w3.org/Graphics/SVG/1.1/DTD/svg11.dtd">
<svg xmlns="http://www.w3.org/2000/svg" xmlns:xlink="http://www.w3.org/1999/xlink" version="1.1" width="1080" height="1080" viewBox="0 0 1080 1080" xml:space="preserve">
<desc>Created with Fabric.js 5.2.4</desc>
<defs>
</defs>
<g transform="matrix(1 0 0 1 540 540)" id="6d4cc270-fcd5-461d-826b-9221d3264aee"  >
<rect style="stroke: none; stroke-width: 1; stroke-dasharray: none; stroke-linecap: butt; stroke-dashoffset: 0; stroke-linejoin: miter; stroke-miterlimit: 4; fill: rgb(255,255,255); fill-rule: nonzero; opacity: 1; visibility: hidden;" vector-effect="non-scaling-stroke"  x="-540" y="-540" rx="0" ry="0" width="1080" height="1080" />
</g>
<g transform="matrix(1 0 0 1 540 540)" id="5dce6d78-b524-46c5-ade8-6e50e85c1169"  >
</g>
<g transform="matrix(19.29 0 0 19.29 540 540)"  >
<g style=""   >
		<g transform="matrix(1 0 0 1 0.99 -13.66)"  >
<path style="stroke: none; stroke-width: 1; stroke-dasharray: none; stroke-linecap: butt; stroke-dashoffset: 0; stroke-linejoin: miter; stroke-miterlimit: 4; fill: rgb(89,177,227); fill-rule: nonzero; opacity: 1;" vector-effect="non-scaling-stroke"  transform=" translate(-28.99, -8.34)" d="M 49.5607 16.6865 C 48.892 16.6865 48.3539 16.1641 48.3539 15.4948 L 48.3539 15.4621 C 48.3539 9.02996 42.9234 3.03856 36.7347 2.63858 C 31.5978 2.36105 26.3874 2.36105 21.2424 2.63858 C 15.0618 3.03856 9.63131 9.02996 9.63131 15.4621 L 9.63131 15.4948 C 9.63131 16.1641 9.09316 16.6865 8.42454 16.6865 C 7.75593 16.6865 7.21777 16.1641 7.21777 15.4948 L 7.21777 14.6296 C 7.21777 14.5153 7.23408 14.401 7.2667 14.2949 C 7.85377 6.99745 13.9528 0.679543 21.0956 0.21427 C 26.3385 -0.0714234 31.6385 -0.0714234 36.8733 0.21427 C 44.0324 0.67138 50.1233 6.98929 50.7185 14.2867 C 50.7511 14.3928 50.7674 14.5071 50.7674 14.6214 L 50.7674 15.4866 C 50.7674 16.156 50.2293 16.6784 49.5607 16.6784 L 49.5607 16.6865 Z" stroke-linecap="round" />
</g>
		<g transform="matrix(1 0 0 1 0 4.75)"  >
<path style="stroke: none; stroke-width: 1; stroke-dasharray: none; stroke-linecap: butt; stroke-dashoffset: 0; stroke-linejoin: miter; stroke-miterlimit: 4; fill: rgb(89,177,227); fill-rule: nonzero; opacity: 1;" vector-effect="non-scaling-stroke"  transform=" translate(-28, -26.75)" d="M 46.837 38.8564 L 9.16626 38.8564 C 8.61995 38.8564 8.14703 38.489 8.00026 37.9666 C 6.41026 32.1956 4.0538 26.343 0.996114 20.572 C 0.311191 19.3231 0.311191 17.9191 0.996114 16.7518 C 1.77888 15.4295 3.31996 14.6377 5.1138 14.6377 L 6.35319 14.6377 C 8.58734 14.6377 10.5443 15.9192 11.1232 17.7477 C 11.539 19.0537 11.9223 20.3679 12.281 21.6821 C 17.4506 20.4577 22.7424 19.87 28.0098 19.919 C 33.2445 19.8455 38.5445 20.4577 43.7141 21.6821 C 44.0647 20.3679 44.4479 19.0537 44.8719 17.7395 C 45.4427 15.9192 47.4078 14.6377 49.6419 14.6377 L 50.8813 14.6377 C 52.6751 14.6377 54.2162 15.4295 54.999 16.7518 C 55.6921 17.9273 55.6921 19.3231 54.999 20.5883 C 51.9495 26.3511 49.593 32.2038 48.003 37.9666 C 47.8562 38.489 47.3751 38.8564 46.837 38.8564 Z M 10.0795 36.432 L 45.9156 36.432 C 47.5464 30.7835 49.8784 25.0696 52.8627 19.4292 C 53.1481 18.9068 53.1644 18.4007 52.9116 17.9762 C 52.5691 17.3967 51.8108 17.0457 50.8731 17.0457 L 49.6338 17.0457 C 48.4678 17.0457 47.4322 17.6416 47.1713 18.4578 C 46.6413 20.123 46.1684 21.78 45.7362 23.4371 C 45.565 24.0819 44.9045 24.4737 44.2685 24.3023 C 38.9359 22.931 33.4647 22.2698 28.0016 22.3269 C 22.5059 22.2616 17.0429 22.931 11.7103 24.3023 C 11.0743 24.4656 10.4056 24.0819 10.2426 23.4371 C 9.81041 21.78 9.33749 20.123 8.80749 18.466 C 8.54657 17.6416 7.51918 17.0539 6.34503 17.0539 L 5.10565 17.0539 C 4.17611 17.0539 3.40965 17.4049 3.06719 17.9844 C 2.81442 18.4089 2.82257 18.9068 3.10796 19.421 C 6.10042 25.0696 8.44057 30.7835 10.0713 36.432 L 10.0795 36.432 Z" stroke-linecap="round" />
</g>
		<g transform="matrix(1 0 0 1 -14.74 18.06)"  >
<path style="stroke: none; stroke-width: 1; stroke-dasharray: none; stroke-linecap: butt; stroke-dashoffset: 0; stroke-linejoin: miter; stroke-miterlimit: 4; fill: rgb(89,177,227); fill-rule: nonzero; opacity: 1;" vector-effect="non-scaling-stroke"  transform=" translate(-13.26, -40.06)" d="M 13.2595 43.6969 C 12.5909 43.6969 12.0527 43.1581 12.0527 42.4888 L 12.0527 37.6402 C 12.0527 36.9708 12.5909 36.4321 13.2595 36.4321 C 13.9281 36.4321 14.4663 36.9708 14.4663 37.6402 L 14.4663 42.4888 C 14.4663 43.1581 13.9281 43.6969 13.2595 43.6969 Z" stroke-linecap="round" />
</g>
		<g transform="matrix(1 0 0 1 14.3 18.06)"  >
<path style="stroke: none; stroke-width: 1; stroke-dasharray: none; stroke-linecap: butt; stroke-dashoffset: 0; stroke-linejoin: miter; stroke-miterlimit: 4; fill: rgb(89,177,227); fill-rule: nonzero; opacity: 1;" vector-effect="non-scaling-stroke"  transform=" translate(-42.3, -40.06)" d="M 42.3034 43.6969 C 41.6348 43.6969 41.0967 43.1581 41.0967 42.4888 L 41.0967 37.6402 C 41.0967 36.9708 41.6348 36.4321 42.3034 36.4321 C 42.9721 36.4321 43.5102 36.9708 43.5102 37.6402 L 43.5102 42.4888 C 43.5102 43.1581 42.9721 43.6969 42.3034 43.6969 Z" stroke-linecap="round" />
</g>
</g>
</g>
</svg>