<?xml version="1.0" encoding="UTF-8" standalone="no" ?>
<!DOCTYPE svg PUBLIC "-//W3C//DTD SVG 1.1//EN" "http://www.w3.org/Graphics/SVG/1.1/DTD/svg11.dtd">
<svg xmlns="http://www.w3.org/2000/svg" xmlns:xlink="http://www.w3.org/1999/xlink" version="1.1" width="1080" height="1920" viewBox="0 0 1080 1920" xml:space="preserve">
<desc>Created with Fabric.js 5.2.4</desc>
<defs>
</defs>
<g transform="matrix(1 0 0 1 540 960)" id="90d2c05b-6173-44e5-bf4a-72efc8984f5a"  >
<rect style="stroke: none; stroke-width: 1; stroke-dasharray: none; stroke-linecap: butt; stroke-dashoffset: 0; stroke-linejoin: miter; stroke-miterlimit: 4; fill: rgb(255,255,255); fill-rule: nonzero; opacity: 1; visibility: hidden;" vector-effect="non-scaling-stroke"  x="-540" y="-960" rx="0" ry="0" width="1080" height="1920" />
</g>
<g transform="matrix(Infinity NaN NaN Infinity 0 0)" id="c1171896-8f85-41e9-a42c-76951747c9a4"  >
</g>
<g transform="matrix(32.73 0 0 32.73 540 960)"  >
<g style=""   >
		<g transform="matrix(1 0 0 1 0.24 -0.07)"  >
<path style="stroke: rgb(89,177,227); stroke-width: 3; stroke-dasharray: none; stroke-linecap: round; stroke-dashoffset: 0; stroke-linejoin: round; stroke-miterlimit: 4; fill: none; fill-rule: nonzero; opacity: 1;" vector-effect="non-scaling-stroke"  transform=" translate(-16.74, -23.43)" d="M 26.2486 2.05121 L 7.23605 2.05121 C 4.61096 2.05121 2.48291 4.17785 2.48291 6.80121 L 2.48291 40.0512 C 2.48291 42.6746 4.61096 44.8012 7.23605 44.8012 L 26.2486 44.8012 C 28.8738 44.8012 31.0018 42.6746 31.0018 40.0512 L 31.0018 6.80121 C 31.0018 4.17785 28.8738 2.05121 26.2486 2.05121 Z" stroke-linecap="round" />
</g>
		<g transform="matrix(1 0 0 1 0.24 14.19)"  >
<path style="stroke: rgb(89,177,227); stroke-width: 3; stroke-dasharray: none; stroke-linecap: round; stroke-dashoffset: 0; stroke-linejoin: round; stroke-miterlimit: 4; fill: none; fill-rule: nonzero; opacity: 1;" vector-effect="non-scaling-stroke"  transform=" translate(-16.74, -37.69)" d="M 16.7422 37.7 L 16.7422 37.6762" stroke-linecap="round" />
</g>
</g>
</g>
</svg>