<?xml version="1.0" encoding="UTF-8" standalone="no" ?>
<!DOCTYPE svg PUBLIC "-//W3C//DTD SVG 1.1//EN" "http://www.w3.org/Graphics/SVG/1.1/DTD/svg11.dtd">
<svg xmlns="http://www.w3.org/2000/svg" xmlns:xlink="http://www.w3.org/1999/xlink" version="1.1" width="1080" height="1080" viewBox="0 0 1080 1080" xml:space="preserve">
<desc>Created with Fabric.js 5.2.4</desc>
<defs>
</defs>
<g transform="matrix(1 0 0 1 540 540)" id="3239ade1-2440-4b87-b2de-0ceeba8845c8"  >
<rect style="stroke: none; stroke-width: 1; stroke-dasharray: none; stroke-linecap: butt; stroke-dashoffset: 0; stroke-linejoin: miter; stroke-miterlimit: 4; fill: rgb(255,255,255); fill-rule: nonzero; opacity: 1; visibility: hidden;" vector-effect="non-scaling-stroke"  x="-540" y="-540" rx="0" ry="0" width="1080" height="1080" />
</g>
<g transform="matrix(1 0 0 1 540 540)" id="d94a789f-55c4-4b8f-b759-72bdbb05dbbf"  >
</g>
<g transform="matrix(20.38 0 0 20.38 540 540)"  >
<path style="stroke: none; stroke-width: 1; stroke-dasharray: none; stroke-linecap: butt; stroke-dashoffset: 0; stroke-linejoin: miter; stroke-miterlimit: 4; fill: rgb(89,177,227); fill-rule: evenodd; opacity: 1;"  transform=" translate(-26.93, -31.3)" d="M 14.8612 9.9375 C 14.2248 9.93771 13.5984 10.095 13.0375 10.3955 C 12.4766 10.696 11.9986 11.1304 11.6458 11.66 L 3.72014 23.5452 C 3.23651 24.274 3.17909 25.2059 3.56997 25.9877 C 7.90733 34.6621 13.9349 42.3821 21.2985 48.6938 L 25.1631 52.0085 C 25.6554 52.4305 26.2824 52.6624 26.9308 52.6624 C 27.5792 52.6624 28.2063 52.4305 28.6986 52.0085 L 32.5632 48.696 C 39.9278 42.3839 45.9562 34.6632 50.2939 25.9877 C 50.6848 25.2059 50.6251 24.274 50.1415 23.5452 L 42.2114 11.66 C 41.8586 11.1311 41.3808 10.6974 40.8204 10.3973 C 40.2599 10.0972 39.634 9.94004 38.9983 9.93971 L 14.8612 9.9375 Z M 14.4018 13.4951 C 14.4523 13.4196 14.5207 13.3578 14.6008 13.315 C 14.6809 13.2723 14.7704 13.2499 14.8612 13.25 L 20.0287 13.25 L 15.7997 23.3995 C 15.7028 23.6317 15.6289 23.8728 15.5789 24.1194 C 14.0236 24.0033 12.4703 23.8634 10.9193 23.6998 L 7.81659 23.3752 L 14.4018 13.4951 Z M 7.67305 26.6899 C 11.6357 33.9599 16.8664 40.4627 23.1181 45.8914 L 16.2171 27.4871 C 14.3343 27.3578 12.4539 27.1943 10.577 26.9969 L 7.67305 26.6899 Z M 19.8321 27.6925 L 26.9297 46.6268 L 34.0295 27.6925 C 29.2988 27.9076 24.5607 27.9076 19.8299 27.6925 L 19.8321 27.6925 Z M 37.6468 27.4871 L 30.7457 45.8914 C 36.9975 40.4627 42.2282 33.9599 46.1908 26.6899 L 43.2868 26.9969 C 41.4098 27.1934 39.5305 27.3568 37.6468 27.4871 Z M 46.0451 23.3752 L 42.9401 23.702 C 41.3892 23.8656 39.8358 24.0055 38.2805 24.1216 C 38.2314 23.8744 38.1582 23.6325 38.0619 23.3995 L 33.8308 13.25 L 38.9983 13.25 C 39.0891 13.2499 39.1785 13.2723 39.2586 13.315 C 39.3388 13.3578 39.4071 13.4196 39.4576 13.4951 L 46.0451 23.3752 Z M 34.8643 24.3358 C 29.5797 24.6097 24.2863 24.6097 18.9996 24.3358 L 23.6172 13.25 L 30.2422 13.25 L 34.8621 24.3358 L 34.8643 24.3358 Z" stroke-linecap="round" />
</g>
</svg>