<?xml version="1.0" encoding="UTF-8" standalone="no" ?>
<!DOCTYPE svg PUBLIC "-//W3C//DTD SVG 1.1//EN" "http://www.w3.org/Graphics/SVG/1.1/DTD/svg11.dtd">
<svg xmlns="http://www.w3.org/2000/svg" xmlns:xlink="http://www.w3.org/1999/xlink" version="1.1" width="1080" height="1080" viewBox="0 0 1080 1080" xml:space="preserve">
<desc>Created with Fabric.js 5.2.4</desc>
<defs>
</defs>
<g transform="matrix(1 0 0 1 540 540)" id="1a5bc4bc-68f7-47e6-b412-061f4b804267"  >
<rect style="stroke: none; stroke-width: 1; stroke-dasharray: none; stroke-linecap: butt; stroke-dashoffset: 0; stroke-linejoin: miter; stroke-miterlimit: 4; fill: rgb(255,255,255); fill-rule: nonzero; opacity: 1; visibility: hidden;" vector-effect="non-scaling-stroke"  x="-540" y="-540" rx="0" ry="0" width="1080" height="1080" />
</g>
<g transform="matrix(1 0 0 1 540 540)" id="4269d7e9-a532-4778-b8cd-065eca30803b"  >
</g>
<g transform="matrix(18.62 0 0 18.62 540 540)"  >
<path style="stroke: rgb(89,177,227); stroke-width: 3; stroke-dasharray: none; stroke-linecap: round; stroke-dashoffset: 0; stroke-linejoin: miter; stroke-miterlimit: 4; fill: none; fill-rule: nonzero; opacity: 1;"  transform=" translate(-29, -21)" d="M 22.4296 7.42666 C 22.4296 4.61333 24.9629 2.33333 28.0936 2.33333 C 31.2216 2.33333 33.7576 4.61333 33.7576 7.42666 C 33.7576 8.74666 33.2776 9.95199 32.4456 10.8587 C 30.8536 12.592 28.4722 14.3387 28.4722 16.5893 L 28.4722 17.3467 M 28.4722 17.3467 C 30.4449 17.3146 32.3808 17.8818 34.0242 18.9733 L 53.8456 32.3333 C 57.3282 34.6827 55.4802 39.6667 51.1256 39.6667 L 6.8749 39.6667 C 2.56557 39.6667 0.688236 34.7733 4.08024 32.3867 L 23.0029 19.0773 C 24.609 17.9623 26.5144 17.3582 28.4696 17.344 L 28.4722 17.3467 Z" stroke-linecap="round" />
</g>
</svg>