<?xml version="1.0" encoding="UTF-8" standalone="no" ?>
<!DOCTYPE svg PUBLIC "-//W3C//DTD SVG 1.1//EN" "http://www.w3.org/Graphics/SVG/1.1/DTD/svg11.dtd">
<svg xmlns="http://www.w3.org/2000/svg" xmlns:xlink="http://www.w3.org/1999/xlink" version="1.1" width="1080" height="1080" viewBox="0 0 1080 1080" xml:space="preserve">
<desc>Created with Fabric.js 5.2.4</desc>
<defs>
</defs>
<g transform="matrix(1 0 0 1 540 540)" id="284e5948-7943-46cd-94fd-4c3f72ab5c75"  >
<rect style="stroke: none; stroke-width: 1; stroke-dasharray: none; stroke-linecap: butt; stroke-dashoffset: 0; stroke-linejoin: miter; stroke-miterlimit: 4; fill: rgb(255,255,255); fill-rule: nonzero; opacity: 1; visibility: hidden;" vector-effect="non-scaling-stroke"  x="-540" y="-540" rx="0" ry="0" width="1080" height="1080" />
</g>
<g transform="matrix(1 0 0 1 540 540)" id="973b4323-209f-48f2-bfab-5049323d8de8"  >
</g>
<g transform="matrix(19.64 0 0 19.64 540 540)"  >
<g style=""   >
		<g transform="matrix(1 0 0 1 0 0)"  >
<path style="stroke: none; stroke-width: 1; stroke-dasharray: none; stroke-linecap: butt; stroke-dashoffset: 0; stroke-linejoin: miter; stroke-miterlimit: 4; fill: rgb(89,177,227); fill-rule: evenodd; opacity: 1;" vector-effect="non-scaling-stroke"  transform=" translate(-27.5, -27.5)" d="M 27.3805 2.86458 L 27.6188 2.86458 C 29.679 2.86458 31.3955 2.86458 32.7568 3.04791 C 34.1959 3.24041 35.4953 3.66666 36.538 4.70937 C 37.583 5.75437 38.0093 7.05374 38.2018 8.49062 C 38.3393 9.49895 38.3736 10.6998 38.3828 12.0885 C 39.8678 12.1367 41.1924 12.226 42.3703 12.3819 C 45.0561 12.744 47.2309 13.5048 48.9474 15.219 C 50.6615 16.9354 51.4224 19.1102 51.7845 21.796 C 52.1351 24.4085 52.1351 27.7429 52.1351 31.955 L 52.1351 32.2117 C 52.1351 36.4237 52.1351 39.7604 51.7845 42.3706 C 51.4224 45.0564 50.6615 47.2312 48.9474 48.9477 C 47.2309 50.6619 45.0561 51.4227 42.3703 51.7848 C 39.7578 52.1354 36.4234 52.1354 32.2113 52.1354 L 22.788 52.1354 C 18.5759 52.1354 15.2393 52.1354 12.629 51.7848 C 9.94322 51.4227 7.76842 50.6619 6.05197 48.9477 C 4.3378 47.2312 3.57697 45.0564 3.21488 42.3706 C 2.86426 39.7581 2.86426 36.4237 2.86426 32.2117 L 2.86426 31.955 C 2.86426 27.7429 2.86426 24.4062 3.21488 21.796 C 3.57697 19.1102 4.3378 16.9354 6.05197 15.219 C 7.76842 13.5048 9.94322 12.744 12.629 12.3819 C 13.9525 12.218 15.2833 12.1201 16.6165 12.0885 C 16.6257 10.6998 16.6624 9.49895 16.7976 8.49062 C 16.9901 7.05374 17.4163 5.75437 18.459 4.70937 C 19.504 3.66666 20.8034 3.2427 22.2403 3.04791 C 23.6038 2.86458 25.3226 2.86458 27.3805 2.86458 Z M 20.0563 12.0358 C 20.9226 12.0312 21.8324 12.0312 22.788 12.0312 L 32.2113 12.0312 C 33.167 12.0312 34.0768 12.0312 34.943 12.0358 C 34.9338 10.7296 34.9018 9.74416 34.7963 8.94895 C 34.652 7.89249 34.4068 7.43874 34.1088 7.14083 C 33.8109 6.84291 33.3572 6.5977 32.2984 6.45333 C 31.1938 6.30666 29.7088 6.30208 27.4997 6.30208 C 25.2905 6.30208 23.8055 6.30666 22.6986 6.45562 C 21.6422 6.5977 21.1884 6.84291 20.8905 7.14312 C 20.5926 7.44104 20.3474 7.89249 20.203 8.94895 C 20.0976 9.74187 20.0655 10.7273 20.0563 12.0358 Z M 13.0851 15.7896 C 10.7797 16.099 9.45051 16.681 8.47884 17.6504 C 7.51176 18.6198 6.92967 19.949 6.6203 22.2544 C 6.30405 24.6079 6.29947 27.7131 6.29947 32.0833 C 6.29947 36.4535 6.30405 39.5587 6.6203 41.9146 C 6.92967 44.2177 7.51176 45.5469 8.48113 46.5162 C 9.45051 47.4856 10.7797 48.0677 13.0851 48.3771 C 15.4409 48.6933 18.5438 48.6979 22.914 48.6979 L 32.0807 48.6979 C 36.4509 48.6979 39.5561 48.6933 41.912 48.3771 C 44.2151 48.0677 45.5443 47.4856 46.5136 46.5162 C 47.483 45.5469 48.0651 44.2177 48.3745 41.9123 C 48.6907 39.5587 48.6953 36.4535 48.6953 32.0833 C 48.6953 27.7131 48.6907 24.6102 48.3745 22.2521 C 48.0651 19.949 47.483 18.6198 46.5136 17.6504 C 45.5443 16.681 44.2151 16.099 41.9097 15.7896 C 39.5561 15.4733 36.4509 15.4687 32.0807 15.4687 L 22.914 15.4687 C 18.5438 15.4687 15.4432 15.4733 13.0851 15.7896 Z" stroke-linecap="round" />
</g>
		<g transform="matrix(1 0 0 1 0 -6.88)"  >
<path style="stroke: none; stroke-width: 1; stroke-dasharray: none; stroke-linecap: butt; stroke-dashoffset: 0; stroke-linejoin: miter; stroke-miterlimit: 4; fill: rgb(89,177,227); fill-rule: nonzero; opacity: 1;" vector-effect="non-scaling-stroke"  transform=" translate(-27.5, -20.63)" d="M 38.9577 20.625 C 38.9577 21.2328 38.7162 21.8157 38.2865 22.2454 C 37.8567 22.6752 37.2738 22.9167 36.666 22.9167 C 36.0582 22.9167 35.4753 22.6752 35.0456 22.2454 C 34.6158 21.8157 34.3743 21.2328 34.3743 20.625 C 34.3743 20.0172 34.6158 19.4343 35.0456 19.0045 C 35.4753 18.5748 36.0582 18.3333 36.666 18.3333 C 37.2738 18.3333 37.8567 18.5748 38.2865 19.0045 C 38.7162 19.4343 38.9577 20.0172 38.9577 20.625 Z M 20.6243 20.625 C 20.6243 21.2328 20.3829 21.8157 19.9531 22.2454 C 19.5234 22.6752 18.9405 22.9167 18.3327 22.9167 C 17.7249 22.9167 17.142 22.6752 16.7122 22.2454 C 16.2825 21.8157 16.041 21.2328 16.041 20.625 C 16.041 20.0172 16.2825 19.4343 16.7122 19.0045 C 17.142 18.5748 17.7249 18.3333 18.3327 18.3333 C 18.9405 18.3333 19.5234 18.5748 19.9531 19.0045 C 20.3829 19.4343 20.6243 20.0172 20.6243 20.625 Z" stroke-linecap="round" />
</g>
</g>
</g>
</svg>