<?xml version="1.0" encoding="utf-8"?>
<svg id="Layer_1" data-name="Layer 1" viewBox="0 0 114.54 122.88" xmlns="http://www.w3.org/2000/svg">
  <defs>
    <style>.cls-1{fill-rule:evenodd;}</style>
  </defs>
  <title>mobile-and-tablet</title>
  <path class="cls-1" d="M 90.119 3.991 L 90.287 28.983 L 85.054 28.983 L 84.717 7.091 L 10.986 7.091 L 10.986 105.567 L 55.084 105.567 L 55.32 119.619 C 55.443 122.047 55.386 119.266 55.386 121.925 C 55.386 122.217 55.291 122.601 55.421 122.871 L 8.985 122.87 C 6.774 122.87 4.983 121.079 4.983 118.869 L 4.983 3.991 C 4.983 1.781 6.774 -0.01 8.985 -0.01 L 86.127 -0.01 C 88.338 -0.01 90.129 1.781 90.129 3.991 L 90.119 3.991 Z M 65.571 30.045 L 100.026 30.045 C 105.276 30.056 109.529 34.308 109.54 39.556 L 109.54 112.378 C 109.529 117.627 105.276 121.879 100.026 121.89 L 65.571 121.89 C 60.321 121.879 56.068 117.627 56.057 112.378 L 56.057 39.546 C 56.063 34.298 60.321 30.045 65.571 30.045 Z M 59.339 108.678 L 106.278 108.678 L 106.278 40.417 L 59.339 40.417 L 59.339 108.678 Z M 82.799 111.678 C 85.81 111.678 87.691 114.937 86.186 117.544 C 84.68 120.152 80.917 120.152 79.411 117.544 C 79.068 116.95 78.887 116.275 78.887 115.589 C 78.881 113.426 80.635 111.672 82.799 111.678 Z M 45.641 109.608 C 49.16 109.6 51.368 113.404 49.615 116.455 C 47.861 119.506 43.462 119.515 41.696 116.473 C 41.29 115.773 41.076 114.978 41.078 114.169 C 41.078 111.65 43.121 109.608 45.641 109.608 Z" style="transform-box: fill-box; transform-origin: 50% 50%;"/>
  <g transform="matrix(1, 0, 0, 1, 59.046999, 0)"/>
  <polyline style="fill: rgb(216, 216, 216); stroke: rgb(0, 0, 0);" points="55.133 112.806 55.297 122.835 55.034 105.596"/>
</svg>