<?xml version="1.0" encoding="UTF-8" standalone="no" ?>
<!DOCTYPE svg PUBLIC "-//W3C//DTD SVG 1.1//EN" "http://www.w3.org/Graphics/SVG/1.1/DTD/svg11.dtd">
<svg xmlns="http://www.w3.org/2000/svg" xmlns:xlink="http://www.w3.org/1999/xlink" version="1.1" width="1080" height="1080" viewBox="0 0 1080 1080" xml:space="preserve">
<desc>Created with Fabric.js 5.2.4</desc>
<defs>
</defs>
<g transform="matrix(1 0 0 1 540 540)" id="fe0f6ed2-a144-4ac2-be40-0539476452a5"  >
<rect style="stroke: none; stroke-width: 1; stroke-dasharray: none; stroke-linecap: butt; stroke-dashoffset: 0; stroke-linejoin: miter; stroke-miterlimit: 4; fill: rgb(255,255,255); fill-rule: nonzero; opacity: 1; visibility: hidden;" vector-effect="non-scaling-stroke"  x="-540" y="-540" rx="0" ry="0" width="1080" height="1080" />
</g>
<g transform="matrix(1 0 0 1 540 540)" id="3efbdcb1-3132-48f0-8cc2-a6bcfc89ea78"  >
</g>
<g transform="matrix(20.77 0 0 20.77 540 540)"  >
<g style=""   >
		<g transform="matrix(1 0 0 1 -5.11 -0.16)"  >
<path style="stroke: rgb(89,177,227); stroke-width: 3; stroke-dasharray: none; stroke-linecap: round; stroke-dashoffset: 0; stroke-linejoin: round; stroke-miterlimit: 4; fill: none; fill-rule: nonzero; opacity: 1;" vector-effect="non-scaling-stroke"  transform=" translate(-20.89, -22.34)" d="M 1.73877 18.7469 L 20.8908 2 L 40.0428 18.7469 L 40.0428 42.6712 L 28.0728 42.6712 L 28.0728 33.1015 C 28.0728 31.1981 27.3161 29.3724 25.9692 28.0264 C 24.6224 26.6805 22.7955 25.9242 20.8908 25.9242 C 18.9859 25.9242 17.1593 26.6805 15.8124 28.0264 C 14.4655 29.3724 13.7088 31.1978 13.7088 33.1015 L 13.7088 42.6712 L 1.73879 42.6712 L 1.73877 18.7469 Z" stroke-linecap="round" />
</g>
		<g transform="matrix(1 0 0 1 9.54 -0.92)" clip-path="url(#CLIPPATH_3)"  >
<clipPath id="CLIPPATH_3" >
	<rect transform="matrix(-1 -0.04 0.04 -1 3.68 -2.36)" id="clip0_0_1" x="-11.7572" y="-11.7572" rx="0" ry="0" width="23.5144" height="23.5144" />
</clipPath>
<path style="stroke: rgb(89,177,227); stroke-width: 2; stroke-dasharray: none; stroke-linecap: round; stroke-dashoffset: 0; stroke-linejoin: round; stroke-miterlimit: 4; fill: none; fill-rule: nonzero; opacity: 1;" vector-effect="non-scaling-stroke"  transform=" translate(-35.54, -21.58)" d="M 34.9537 24.012 L 33.075 21.9749 L 36.1306 19.1568 L 38.0094 21.1939" stroke-linecap="round" />
</g>
		<g transform="matrix(1 0 0 1 10.64 -0.04)" clip-path="url(#CLIPPATH_4)"  >
<clipPath id="CLIPPATH_4" >
	<rect transform="matrix(-1 -0.04 0.04 -1 2.58 -3.24)" id="clip0_0_1" x="-11.7572" y="-11.7572" rx="0" ry="0" width="23.5144" height="23.5144" />
</clipPath>
<path style="stroke: rgb(89,177,227); stroke-width: 2; stroke-dasharray: none; stroke-linecap: round; stroke-dashoffset: 0; stroke-linejoin: round; stroke-miterlimit: 4; fill: none; fill-rule: nonzero; opacity: 1;" vector-effect="non-scaling-stroke"  transform=" translate(-36.64, -22.46)" d="M 41.3792 18.0858 L 31.8979 26.8302" stroke-linecap="round" />
</g>
		<g transform="matrix(1 0 0 1 18.63 -7.41)" clip-path="url(#CLIPPATH_5)"  >
<clipPath id="CLIPPATH_5" >
	<rect transform="matrix(-1 -0.04 0.04 -1 -5.41 4.13)" id="clip0_0_1" x="-11.7572" y="-11.7572" rx="0" ry="0" width="23.5144" height="23.5144" />
</clipPath>
<path style="stroke: rgb(89,177,227); stroke-width: 2; stroke-dasharray: none; stroke-linecap: round; stroke-dashoffset: 0; stroke-linejoin: round; stroke-miterlimit: 4; fill: none; fill-rule: evenodd; opacity: 1;" vector-effect="non-scaling-stroke"  transform=" translate(-44.63, -15.09)" d="M 40.2244 14.9098 C 40.3227 12.4787 42.375 10.5842 44.809 10.6826 C 47.2407 10.7809 49.1333 12.8349 49.035 15.266 C 48.9368 17.6971 46.8845 19.5916 44.4528 19.4933 C 42.0188 19.3949 40.1261 17.3408 40.2244 14.9098 Z" stroke-linecap="round" />
</g>
</g>
</g>
</svg>